<svg width="41" height="26" viewBox="0 0 41 26" fill="none" xmlns="http://www.w3.org/2000/svg">
<path d="M33.462 11.3345C33.462 11.3345 34.0029 13.406 34.124 13.8404H31.7465C31.9814 13.3448 32.8854 11.418 32.8854 11.418C32.8712 11.4348 33.1203 10.9113 33.2627 10.5883L33.462 11.3345ZM41 2.90925V22.5107C41 23.9863 39.4696 25.1836 37.5833 25.1836H3.41667C1.53038 25.1836 0 23.9863 0 22.5107V2.90925C0 1.43357 1.53038 0.236328 3.41667 0.236328H37.5833C39.4696 0.236328 41 1.43357 41 2.90925ZM10.855 16.8975L15.3536 8.25509H12.3285L9.53108 14.1578L9.225 12.9605L8.22847 8.98457C8.06476 8.43328 7.55937 8.27736 6.93299 8.25509H2.3276L2.27778 8.42772C3.40243 8.65046 4.40608 8.97344 5.2816 9.37994L7.82986 16.8975H10.855ZM17.5745 16.9087L19.3682 8.25509H16.5068L14.7201 16.9087H17.5745ZM27.5326 14.0798C27.5469 13.0942 26.7781 12.3424 25.1339 11.7243C24.1302 11.3289 23.5181 11.0617 23.5181 10.6551C23.5323 10.2876 24.0377 9.90896 25.1623 9.90896C26.0948 9.89225 26.7781 10.0649 27.2906 10.2375L27.5469 10.3322L27.9384 8.46113C27.376 8.2885 26.4792 8.0936 25.3759 8.0936C22.55 8.0936 20.5641 9.27414 20.5498 10.9559C20.5285 12.1976 21.9734 12.8882 23.0554 13.3058C24.1587 13.729 24.5359 14.0074 24.5359 14.3805C24.5217 14.9597 23.6391 15.227 22.8205 15.227C21.6816 15.227 21.0694 15.0877 20.137 14.7648L19.7597 14.6256L19.3611 16.569C20.0302 16.8084 21.2687 17.02 22.55 17.0312C25.5538 17.0367 27.5113 15.8729 27.5326 14.0798ZM37.5833 16.9087L35.2771 8.25509H33.0634C32.38 8.25509 31.8604 8.41101 31.5686 8.97344L27.3191 16.9087H30.3229C30.3229 16.9087 30.8141 15.8395 30.9208 15.6112H34.5938C34.6792 15.9175 34.9354 16.9087 34.9354 16.9087H37.5833Z" fill="#F1F8FF"/>
</svg>
